<svg height="40" viewBox="0 0 120 40" width="120" xmlns="http://www.w3.org/2000/svg"><g fill="#012859"><path d="m75.6878595.28278114h10.6960982l.0764807 25.12049946c0 4.0224233-1.1440386 7.2983597-3.4323022 9.8278092-1.3971709 1.5161729-3.1114566 2.7038168-5.019742 3.4779929-1.9741334.849012-4.0991761 1.288111-6.247163 1.2909173-4.2530702 0-7.837774-1.3171098-10.7539251-3.9513293-2.9161511-2.6342196-4.3743199-5.8665641-4.3743199-9.6968466 0-3.7043712 1.4488419-6.9097749 4.3463392-9.616398 2.8974972-2.7065671 6.3292398-4.0585877 10.2950411-4.0560994.6291933 0 1.5824033.052385 2.8596301.1571551 0 3.6170566-.0061558 7.234188-.0186538 10.8511885-.7028758-.5010256-1.5124515-.8312385-2.3645578-.9642591-.8521063-.1332077-1.7234261-.0656684-2.5451267.1971923-.8155448.2785762-1.5467744.7614541-2.1242966 1.4029838-.5775221.6413427-.9821234 1.420009-1.1755635 2.2620987-.889787 4.2338344 4.3556661 7.7978885 7.8084875 4.9634832 1.6004974-1.3096261 2.1302658-3.5546996 2.1563812-5.623909.0354422-2.8063419-.1287114-5.6295218-.1361729-8.4414763l-.039173-12.2225542c.0074615-.27127971-.0055961-4.97844856-.0074615-4.97844856z"/><path d="m102.267682 13.6709195v10.1215209h-4.3873773l-.039173 15.5097159h-9.8249651v-3.9288786l.0130577-8.8063007.0167884-9.2515549c0-1.7979297-.2219804-3.5996011.0186539-5.3919181.2372765-1.7893423.8256179-3.51382067 1.7310741-5.0738661 2.3224001-3.97752185 6.7228354-6.67722963 11.3508473-6.67722963l18.853412-.04303057-.044769 10.5350142c-.227577-.016838-.458884 0-.684595 0h-7.01197c-1.003575 0-2.00715 0-3.010726 0-.95321 0-1.90642 0-2.85963 0h-4.077724c-.809576 0-1.619151-.0112253-2.4249961 0-.2669361.0157342-.5295818.0744803-.7778641.1739932-.2667496.1180722-.4922742.3135619-.6472874.5612684-.2178766.3616813-.3755014.7566459-.4663454 1.1693091-.0740557.3651238-.1108037.7368331-.1100576 1.1094405z"/><path d="m73.9567853.19671999v10.38159211c-6.0102596 0-12.0111923.0430305-18.0195865.2207655-.4420954.0130963-.9065755.0336761-1.2815172.2712797-.3335302.2428234-.5816259.5853842-.708845.9784779-.3730763.9597689-.4122493 2.0149534-.4420954 3.0439454-.1324421 4.5649828-.063423 9.1673834-.3917302 13.7155281-.1753458 2.4321629-.102596 7.9475601-2.6693611 9.3713109-1.9623814 1.0888606-7.6667185.6304915-11.2743665.6304915l-4.0366859-.1047701v-10.433979l3.0536298.106641c1.6825742 0 2.88388-.3298388 3.6039173-.9897033 1.3971708-1.2815627.7219027-7.3844208.7797295-9.1037729.1454998-4.2357053-.5465568-9.74548982 1.6023628-13.50598789 1.4046324-2.45461367 4.1038396-3.95132746 6.8571429-4.55001372 1.5930359-.34798583 22.9274055-.24882841 22.9274055-.0318052z"/><path d="m29.318203 5.9179137c-1.5256956-1.7088751-3.3949945-3.07410428-5.4849681-4.00573494-2.0899736-.93164001-4.3530546-1.40854226-6.6400125-1.39941912-10.47784855.12548211-17.1932224 9.82233616-17.1932224 19.64079076 0 5.6126837 1.62599161 10.2768239 4.87797295 13.9924205 3.25322556 3.7212093 7.32908445 4.969096 12.20705735 4.969096 1.1732691-.0078578 2.3440386-.1092603 3.5013213-.3030849l.0671538-11.7417343c-.4905954.2806341-1.9288046 1.1805344-2.9846106 1.1992434-1.055806.0187089-2.2086119.0336761-3.2625525-.3741789-2.6544381-.8493862-4.61308876-4.028036-4.61308876-7.0158547 0-2.3741652 1.24047876-4.8942601 3.32411006-6.102858 2.3056117-1.3358188 5.6315871-.692231 7.2190269 1.4611686.8170371 1.1075696 1.158402 2.4957734 1.3057671 3.8633973.3189803 2.7670531.1622882 5.6388762.1399036 8.4190255-.0242499 2.8961448-.078346 5.7904187-.0895383 8.6846926v1.7305775h12.1790767c-.2965957-6.4022012.2816726-12.8231114-.0615576-19.2234417-.2145189-4.028036-.8375564-8.1589712-2.9062646-11.62012612-.4605627-.77213689-.9914503-1.49989617-1.5855744-2.17397948z"/><ellipse cx="111.456552" cy="32.834474" rx="6.06249" ry="6.080407"/></g></svg>