<svg height="82.523" viewBox="0 0 175.377 82.523" width="175.377" xmlns="http://www.w3.org/2000/svg"><g fill="#013e88" fill-rule="evenodd"><g fill-rule="nonzero"><path d="m175.377 26.2791-13.839 22.5565 13.839 14.8534-86.5979847 12.4484514c-2.9536.4239-5.5915-1.8429-5.5915-4.7914v-31.8077zm-72.39 30.8677-4.31.6266h.037l-.13 10.7069 2.415-.3501.037-3.8147 1.709-.258 2.025 3.5198 2.656-.387-2.415-3.8699c.743-.4055 1.301-.7372 1.635-1.5112.279-.645.316-1.4006.167-2.1193-.371-1.806-1.579-2.4878-2.563-2.5984-.428-.0553-.855 0-1.263.0553zm9.678-1.677c-4.217.6081-4.793 4.9388-4.328 7.224.223 1.1057.724 2.2851 1.597 3.0038.725.6082 1.988 1.1057 3.641.8662.855-.129 1.728-.4608 2.415-.9952v.0184c.873-.7002 1.486-1.7691 1.802-2.9117.316-1.1241.334-2.2851.111-3.4092-.613-3.0776-2.972-4.128-5.238-3.7963zm11.127-1.6216c-4.217.6081-4.793 4.9388-4.328 7.224.223 1.1057.724 2.2851 1.597 3.0038.725.6082 1.988 1.1057 3.641.8662.873-.129 1.728-.4607 2.415-.9952v.0185c.873-.7003 1.486-1.7692 1.802-2.9117.316-1.1242.334-2.2852.111-3.4093-.613-3.0776-2.972-4.128-5.238-3.7963zm-8.322 5.768c.279 1.419.093 4.5334-2.173 4.8651-1.022.1475-2.155-.4054-2.49-2.064v-.0184c-.185-.8846-.408-4.3307 1.988-4.7914.427-.0922 2.229-.2396 2.675 2.0087zm21.529515-7.4061-7.653515 1.1036-.074 2.0824 2.675-.387-.093 8.6246 2.452-.3501.093-8.6246 2.526-.3686zm-10.402515 5.8029c.279 1.4006.093 4.515-2.174 4.8467-1.021.1475-2.154-.4054-2.489-2.0639v.0184c-.186-.8846-.408-4.3307 1.988-4.7914.427-.1106 2.229-.258 2.675 1.9902zm18.762-7.0213-.019.0184-7.021 1.0136-.149 10.707 7.765-1.1242v-2.0271l-5.332.774.038-2.58 4.495-.645v-1.9718l-4.477.6449.037-2.0639 4.663-.6819zm-40.942 9.1405c.111.5897-.056 1.1979-.372 1.4927-.26.258-.743.3686-1.077.4239l-1.913.2764.037-2.9301 1.653-.2396c.52-.0737 1.449-.129 1.672.9767zm47.611-10.1172-4.31.6265h.037l-.13 10.707 2.415-.3501.056-3.8147 1.709-.258 2.024 3.5198 2.657-.387-2.415-3.87c.743-.4054 1.3-.7371 1.635-1.5111.278-.645.315-1.4006.167-2.1193-.372-1.806-1.579-2.4879-2.564-2.5984-.446-.0553-.873 0-1.281.0553zm6.353 7.0765c-.65.1106-1.133.7372-1.04 1.4743.092.7556.761 1.1979 1.393 1.1057h-.019c.688-.0921 1.152-.7371 1.059-1.4558s-.687-1.2163-1.393-1.1242zm.037.1106v.0184c.632-.0921 1.17.3686 1.263 1.0136s-.316 1.2347-.947 1.3269c-.613.0921-1.189-.3502-1.282-1.0136-.093-.645.334-1.2531.966-1.3453zm.409.3317c-.112-.0368-.242-.0184-.372 0v.0185l-.557.0737.223 1.6585.371-.0552-.093-.7003h.075c.236-.018.241-.0009.328.275l.006.0198c.037.1475.074.258.13.3502l.427-.0553c-.093-.1474-.148-.2764-.204-.4976-.074-.2027-.111-.2396-.223-.2948l.02-.0156c.095-.0738.238-.185.203-.4083-.019-.1474-.13-.3317-.334-.3686zm-.075.2949c.056.0184.093.0737.093.129 0 .0368-.018.1106-.055.1474-.056.0369-.112.0553-.223.0922h-.151l-.035-.3502h.111c.186-.0184.205-.0184.26-.0184zm-5.294-4.8468c.111.5898-.056 1.1979-.372 1.4928-.26.258-.743.3685-1.077.4238l-1.913.2764.037-2.9117 1.653-.2395c.52-.0922 1.449-.1475 1.672.9582zm-50.304-9.8039-4.31.6266h.018l-.13 10.707 2.415-.3501.056-3.8148 1.709-.258 2.025 3.5199 2.656-.387-2.415-3.87c.743-.4054 1.301-.7371 1.635-1.5111.279-.645.316-1.4006.167-2.1193-.371-1.806-1.579-2.4879-2.563-2.5984-.428-.0553-.855 0-1.263.0552zm12.966-1.8797h-.019l-7.04 1.032-.149 10.707 7.765-1.1241v-2.0272l-5.331.774.037-2.58 4.495-.645v-1.9718l-4.44.645v-2.064l4.645-.6819zm5.368-1.0689c-2.247.3133-2.916 1.3637-3.213 1.9903-.242.5713-.372 1.2347-.242 1.8982.372 1.806 2.062 2.2114 2.656 2.3588.632.1659 1.282.258 1.932.4239.651.1843 1.059.4054 1.152.8661.13.6082-.353 1.2716-1.43 1.4374-.465.0737-.985.0369-1.486-.1843-.818-.3317-1.096-.8292-1.301-1.1978l-1.839 1.7138c.502.5898.985 1.1242 2.118 1.5112.947.3133 1.913.3501 2.861.2211 2.916-.4054 3.938-2.3957 3.585-4.1095-.427-2.1009-2.211-2.4695-4.384-2.8933-.65-.129-1.356-.2764-1.468-.8662-.037-.2027 0-.9951 1.189-1.161.539-.0737 1.338-.0552 1.914.3686.315.2396.464.4792.613.7556l1.764-1.548c-.724-.7556-1.43-1.5112-3.139-1.6402-.427-.0184-.854 0-1.282.0553zm9.883-1.4373c-3.604.5345-4.644 4.128-4.087 6.8739.706 3.5198 3.362 4.4597 5.369 4.1648 2.303-.3317 3.269-2.064 3.622-3.0591.074-.1843.13-.3686.186-.5528l-.037-.0185-2.267-.903c-.148.5897-.316 1.2163-.817 1.7692-.279.3132-.687.5528-1.096.6081-.855.129-2.006-.4423-2.396-2.4141-.39-1.9166.26-4.2202 1.969-4.4597 1.263-.1843 1.839.8477 2.062 1.2347l2.229-.903c-.316-.5713-.595-1.032-1.171-1.4743-.873-.6819-2.21-1.0689-3.566-.8662zm14.415-1.806-2.434.3501-.13 6.6159c-.074 1.0504-.223 2.0824-1.467 2.2667-.446.0553-1.486 0-1.709-1.0873-.056-.258-.056-.516-.056-.7924l.056-6.5237-2.452.3501-.056 5.9709c0 .5344 0 1.1057.112 1.6401.501 2.5063 2.805 2.8933 4.458 2.6537 1.597-.2211 2.656-1.0688 3.121-1.9166.445-.8292.483-1.7875.483-2.5062zm-41.202 9.1589c.111.5897-.056 1.1795-.372 1.4927-.26.258-.743.3686-1.077.4239l-1.913.2764.037-2.9117 1.653-.2395c.52-.0922 1.449-.1475 1.672.9582zm50.36-10.4858-7.021 1.0135-.149 10.707 7.746-1.1241v-2.0271l-5.331.774.037-2.58 4.495-.645v-1.9719l-4.439.645v-2.064l4.662-.6634z"/><path d="m23.5361 44.3207 24.5577-2.8012 41.2206-25.0628 41.7776 17.3228 19.914-2.7643-25.338-10.2094v-20.8058l-14.527 1.91657v11.57313l-22.4025-9.85928-.1486-.09214z"/><path d="m90.0201 34.1112-.1671 35.2907v.0184l-89.853 13.1027 14.0622-22.9067-13.91359-17.2675 85.02319-12.4024c2.5635-.3686 4.8483 1.5848 4.8483 4.1648zm-57.2705 12.1078-6.5574.9399-10.8484 25.7078 6.1301-.8662 1.8948-5.0678 8.6193-1.2347.9845 4.6624 5.7029-.8109zm19.8577-2.838-10.3097 1.4743v-.0184l-1.8577 24.4362 5.7958-.8293.6687-8.7167 4.1054-.5897 4.3097 8.0164 6.353-.903-5.1642-8.8088c1.8205-.9583 3.1951-1.6954 4.0868-3.4646.7802-1.4374.966-3.1881.7245-4.8283-.5945-4.128-3.3809-5.6391-5.6843-5.8971-1.0403-.129-2.0249-.0184-3.028.129zm22.812-3.5568c-1.0217-.0553-2.0434-.0184-3.0651.129-5.3685.774-7.1146 3.1697-7.8948 4.5887-.6874 1.29-1.0775 2.8196-.8545 4.3307.613 4.128 4.5511 5.031 5.9629 5.3812 1.5047.3317 3.0279.5528 4.5326.9214 1.5418.387 2.4706.903 2.6192 1.9534.1858 1.3637-1.0402 2.9117-3.6223 3.2803-1.1332.1659-2.3592.0921-3.5109-.4239-1.8762-.7555-2.4706-1.8981-2.8979-2.7274v.0184l-4.6626 3.9806c1.1517 1.3637 2.1734 2.5984 4.8298 3.4461 2.192.7188 4.514.7925 6.7617.4792 6.9661-.9767 9.6596-5.5101 9.0838-9.4354-.6874-4.8099-4.9041-5.6023-9.9754-6.5606-1.5233-.2948-3.158-.6081-3.3623-1.9534-.0743-.4792.1672-2.2852 2.9907-2.6906 1.2818-.1843 3.158-.1106 4.4769.8293.7616.5344 1.0403 1.0689 1.3746 1.7139l4.4212-3.5383c-.0979515-.106103-.1956981-.2120033-.2938021-.3173972l-.2959467-.314359c-1.441029-1.5091241-3.0754573-2.8479468-6.6178512-3.0908438zm-46.3478 11.9971 2.0434 9.6381-5.9629.8477zm22.6813-3.87c1.2446-.1843 3.4552-.3317 3.8267 2.193.1858 1.3453-.3158 2.709-1.096 3.4093-.6687.6081-1.839.8845-2.6378.9951l-4.5509.6424.5199-6.6685z"/></g><path d="m166.35 48.3565c0 .8846.724 1.4927 1.504 1.4927v-.0184c.855 0 1.505-.645 1.505-1.4743 0-.8109-.632-1.4927-1.505-1.4927-.817 0-1.504.6081-1.504 1.4927zm.13 0c0-.7372.594-1.3453 1.374-1.3453l-.018-.0184c.78 0 1.356.6265 1.356 1.3637 0 .7556-.613 1.3453-1.356 1.3453s-1.356-.6082-1.356-1.3453zm1.356-.9583c.185 0 .315 0 .446.0369.222.0737.315.2764.315.4422 0 .3262-.287.4208-.35.4413l-.003.001c.112.0553.205.1106.242.3686l.01.0629c.031.2065.054.3574.138.5084h-.464c-.056-.129-.074-.258-.093-.4054-.056-.3502-.074-.4055-.408-.4055h-.093v.8293h-.409v-1.8981h.65zm-.019.7556h-.223v-.4423h.186c.223 0 .26 0 .316.0184.093.0369.111.129.111.1843 0 .2396-.241.2396-.39.2396z"/></g></svg>