<svg height="40" viewBox="0 0 154 40" width="154" xmlns="http://www.w3.org/2000/svg"><path d="m15.3462393 14.6878825c-2.883529-.0489596-5.0339575.8812729-7.0377658 2.7906977-1.71056807 1.7135863-2.78578229 4.4063647-2.78578229 7.2949816 0 5.9241126 4.34973024 10.0856793 9.82354809 10.0856793 4.7895906-.0489596 7.8197398-2.9865361 8.9927007-5.8261934h5.6693113c-1.7594414 6.2668299-7.3798794 10.9669523-14.6131386 10.9669523-9.38368776 0-15.3951127-7.246022-15.3951127-15.2264382 0-8.5189718 6.50015868-15.22643818 15.1018724-15.22643818 6.8911457 0 13.0491908 4.21052628 14.8575056 11.16279068h-5.620438c-1.4662012-3.867809-5.0828308-6.0220318-8.9927007-6.0220318m33.7715011-5.14075888c9.676928 0 15.2973659 7.49082008 15.2973659 15.22643818s-5.6693113 15.1774786-15.2973659 15.1774786c-9.676928 0-15.3462393-7.4418605-15.3462393-15.1774786v-.0489596c.0488734-7.6866585 5.6693113-15.17747858 15.3462393-15.17747858m0 25.26315788c5.4738178 0 9.8235481-4.3084455 9.8235481-10.0367197 0-5.7772338-4.3497303-10.0367197-9.8235481-10.0367197s-9.8235481 4.3084455-9.8235481 10.0367197v.0489596c0 5.7282742 4.3497303 9.9877601 9.8235481 9.9877601m21.064424 4.3574052h5.4738178v-39.1676867h-5.4738178zm36.5572836-28.7882497h5.473818v28.7882497h-5.473818v-5.0428397c-2.003809 3.8678091-6.109172 5.875153-10.6543956 5.875153-9.2370676 0-14.7597588-7.1970624-14.7597588-15.2264382 0-8.7637699 6.4024119-15.22643818 14.7597588-15.22643818 5.7181846 0 9.3348146 3.18237458 10.6543956 5.92411258zm-.977468 18.8004896c.635354-1.3219095.928594-2.7906977 1.026341-4.3084456.048874-1.4687882-.195493-2.9865361-.830847-4.3084455-1.368455-3.3292534-4.594097-5.9241126-9.1881944-5.9241126-6.011425 0-9.9212948 4.749082-9.9212948 10.1835985v.0489596c.0488733 4.3084456 3.0790225 9.9877601 10.0190415 9.9877601 4.3497307.0489596 7.4776257-2.3990208 8.8949537-5.6793145m18.962869-14.5410037v-4.2105263h-5.180577v28.7882497h5.473817v-15.5691555c0-5.7282742 2.688036-8.5679314 7.868614-8.5679314h.390987v-5.48347617c-3.90987 0-6.891146 1.61566707-8.552841 5.04283967m23.703586-4.2594859v-10.379437h-5.473817v10.379437h-5.180578v4.3084455h5.180578v24.5287638h5.473817v-24.5287638h5.571565v-4.3084455z" fill="#013e88"/></svg>