<svg height="55.909" viewBox="0 0 178.369621 55.909" width="178.369621" xmlns="http://www.w3.org/2000/svg" xmlns:xlink="http://www.w3.org/1999/xlink"><mask id="a" fill="#fff"><path d="m0 0h31.6453466v55.909h-31.6453466z" fill="#fff" fill-rule="evenodd"/></mask><g fill="#013e88" fill-rule="evenodd"><path d="m15.9852977 51.3914c-.712-.609-1.279-1.374-2.212-.72-.194.136-.206.943-.002 1.156.779.815 1.491.392 2.214-.436m2.617-12.139c-.652-1.207-1.193-2.207-1.742-3.223-1.306 1.009-.015 1.893.025 2.901h-1.576c.004.034.008.067.012.101 1.03.069 2.061.139 3.281.221m-11.37400005-12.058c.267-.312.831-.676.899-1.117.131-.84-.41-1.437-1.274-1.568-.764-.116-1.258.312-1.307 1.053-.06.91.57 1.319 1.682 1.632m-4.295-10.588c.377 1.689.67 3.403 1.166 5.057.236.788.934 1.655 1.869 1.286 1.066-.422.373-1.408.16-2.083-1.696-5.373-.704-10.257 2.545-14.775.195-.272.204-.678.3-1.021-.371-.022-.894-.212-1.088-.037-.954.86-2.073 1.679-2.669 2.767-1.476 2.691-1.994 5.678-2.283 8.806m8.57100005-15.041c1.957 0 4.116-.233 6.203.055 3.096.428 5.616 2.188 7.417 4.664 3.064 4.215 4.873 8.977 3.922 14.225-.911 5.029-3.484 9.284-7.511 12.565-.559.456-1.121.91-1.681 1.365.058.083.116.165.174.248.7-.41 1.447-.756 2.093-1.238 4.464-3.328 7.471-7.734 8.504-13.149 1.098-5.763-.759-10.988-4.506-15.404-3.876-4.566-9.868-5.348-14.615-3.331m4.85 50.74c-1.662.778-2.72.711-3.326-.218-.457-.699-.31-1.373.299-1.927.774-.704 1.699-.544 3.283.746.205-1.783.574-3.361.515-4.924-.062-1.649-.548-3.28-.819-4.924-.15-.916-.674-1.237-1.563-1.202-.356.015-.721-.159-1.248-.287.784-1.238 1.469-2.32 2.235-3.53-1.268-.247-2.32-.415-3.353-.659-3.34100005-.787-5.66300005-3.003-7.66600005-5.602-3.532-4.581-5.226-9.783-4.574-15.541.743-6.563 6.117-12.267 12.62200005-13.782 7.16-1.668 13.443 1.293 16.412 8.032 1.093 2.48 1.712 5.198 2.301 7.861.513 2.318-.206 4.598-.963 6.786-1.585 4.584-4.382 8.316-8.383 11.054-1.279.875-2.842 1.337-4.427 2.057.268.489.627 1.173 1.013 1.841.782 1.352.559 1.762-.992 1.792-.348.007-.696.032-1.157.054 1 2.545 1.356 5.088 1.135 7.705-.046.554-.014 1.169-.246 1.644-.94 1.926-.262 3.666.463 5.427.136.33.18.698.266 1.049-.142.05-.283.101-.425.152-.457-1.174-.914-2.348-1.402-3.604" mask="url(#a)"/><path d="m55.6766977 22.4071312c-3.002-.0149312-5.437 2.4250688-5.4500455 5.4590688-.0119545 3.079 2.3530455 5.571 5.3150455 5.599 2.894.028 5.26-2.407 5.312-5.467.051-3.036-2.301-5.577-5.177-5.5910688m-5.493-1.1039312c3.571-3.115 6.972-3.507 10.451-1.306 3.469 2.195 5.08 6.558 3.9 10.559-1.192 4.039-4.695 6.722-8.751 6.692-2.057-.014-3.75-.871-5.309-2.51 0 2.252-.032 4.267.014 6.281.023.983-.328 1.321-1.329 1.292-3.147-.09-2.871.439-2.872-2.89-.003-6.18.003-12.361-.006-18.542-.001-.986-.125-1.952 1.348-1.997 2.046-.062 2.183-.004 2.441 1.838.021.148.057.294.113.583"/><path d="m126.283598 22.4072855c-2.96-.0069855-5.455 2.5140145-5.449011 5.5040145.007011 3.025 2.464011 5.548 5.408011 5.5540111 2.918.0059889 5.222-2.4130111 5.253-5.5160111.031-3.064-2.293-5.535-5.212-5.5420145m-5.167 12.5010145c0 2.105-.033 4.055.014 6.003.024.983-.23 1.438-1.339 1.403-3.202-.101-2.798.402-2.805-2.804-.014-6.342.005-12.683-.015044-19.024-.001956-.84.060044-1.49 1.117044-1.593 1.885-.185 2.25-.028 2.542 1.278.074.334.159.666.241 1.006.123-.037.22-.036.264-.084 2.24-2.451 4.972-3.049 8.068-2.051 3.321 1.07 5.373 3.412 6.129 6.755 1.306 5.771-2.809 11.239-8.498 11.45-1.968.074-3.094-.378-5.718-2.339"/><path d="m174.325401 27.9052c-.003003-3.137-2.254003-5.508-5.218003-5.4980315-2.948.0090315-5.438 2.5670315-5.405 5.5510315.033 3.026 2.498 5.515 5.456 5.5070192 2.933-.0070192 5.17-2.4140192 5.167003-5.5600192m-10.545003-6.657c.2-.167.357-.276.489-.41 2.546-2.596 5.549-2.832 8.698-1.45 3.253 1.429 5.055 4.021 5.356 7.591.201 2.377-.234 4.594-1.69 6.551-3.14 4.218-8.217 4.81-12.673 1.331 0 2.082-.047 4.049.019 6.012.037 1.06-.24 1.486-1.399 1.444-3.098-.111-2.685.373-2.693-2.658-.015-6.377.005-12.755-.016125-19.132-.002875-.882.039125-1.567 1.180125-1.641 1.893-.123 2.156-.024 2.451 1.251.079.341.17.679.278 1.111"/><path d="m79.4897322 27.9368c.0140655 3.111 2.3170655 5.54 5.2310655 5.518 2.957-.022 5.387-2.543 5.3780249-5.578-.0090249-3.033-2.4510249-5.497-5.4400249-5.4880246-2.949.0090246-5.183 2.4070246-5.1690655 5.5480246m10.5630655 7.204c-4.628 3.041-9.363 2.552-12.447-1.228-3.021-3.702-2.844-9.09.41-12.437 3.49-3.59 8.067-3.801 12.242-.539.047-.103.107-.193.13-.292.393-1.72 1.265-2.243 2.971-1.645.342.12.764.654.768 1.001.048 5.301.039 10.604.015 15.905-.001.275-.173.646-.389.807-1.307.974-3.426.105-3.7-1.572"/><path d="m152.489274 27.9301c-.015076-3.131-2.279076-5.536-5.198076-5.5230525-2.872.0130525-5.186 2.5010525-5.187 5.5740525 0 3.105 2.273 5.486 5.236 5.4840013 2.97-.0010013 5.164-2.3590013 5.149076-5.5350013m-5.140076 9.3290016c-5.124-.0030016-9.277-4.1590016-9.279002-9.2880016-.002998-5.178 4.188002-9.355 9.367002-9.3350715 5.055.0200715 9.308 4.3170715 9.266 9.3640715-.043 5.092-4.255 9.262-9.354 9.2590016"/><path d="m101.529698 21.1458c1.759-2.062 3.878-2.774 6.319-2.394 3.521.548 5.711 3.104 5.884 7.058.144 3.302.04 6.616.05 9.924.003.849-.433 1.229-1.258 1.239-3.298.038-2.811.055-2.825-2.594-.013-2.591.026-5.183-.014-7.773-.031-1.98-1.142-3.498-2.747-3.904-1.725-.435-3.708.332-4.536 1.887-.321.604-.492 1.356-.505 2.044-.055 2.909-.015 5.82-.027 8.73-.007 1.389-.23 1.595-1.598 1.61-.12.002-.24.001-.3600003.001-2.144.001-2.143.001-2.143-2.089 0-4.704.009-9.408-.008-14.112-.003-.978-.045-1.845 1.348-1.86 1.9770003-.021 2.1540003.056 2.3200003 1.665.011.113.039.225.1.568"/><path d="m68.0635977 25.3132c0-3.423.029-6.846-.017-10.268-.014-1.081.357-1.485 1.458-1.468 2.861.045 2.657-.182 2.655 2.653-.006 6.367-.001 12.735-.003 19.103 0 1.508-.124 1.628-1.626 1.64-2.467.021-2.467.021-2.467-2.467 0-3.064 0-6.129 0-9.193"/></g></svg>