<svg height="50" viewBox="0 0 86 50" width="86" xmlns="http://www.w3.org/2000/svg"><g fill="#013e88" fill-rule="evenodd"><path d="m46.2565441 29.3965469c1.465865 2.12773 2.3278715 4.7195153 2.3278715 7.5132835 0 7.2249232-5.7551418 13.0901696-12.8444802 13.0901696s-12.8438315-5.8652464-12.8438315-13.0901696c0-7.2238863 5.7544931-13.0901411 12.8438315-13.0901411 1.8018465 0 3.5180761.379635 5.0747469 1.0633739-1.3361424.7916508-2.5289415 1.8089344-3.5278052 2.998855-.502675-.0882871-1.0196194-.1343928-1.5469417-.1343928-4.9618882 0-8.9910712 4.1053838-8.9910712 9.162305 0 5.0579712 4.029183 9.1633156 8.9910712 9.1633156 4.9618883 0 8.9910713-4.1053444 8.9910713-9.1633156 0-2.1826355-.7504451-4.1877649-2.0029165-5.7622207.9845943-.8750556 2.1942573-1.4930655 3.5284539-1.7510628zm-8.3097592 15.6230465c-1.7311039-2.230736-2.7649667-5.048128-2.7649667-8.109763 0-7.2238863 5.7562936-13.0901411 12.8441558-13.0901411 7.0891594 0 12.8441559 5.8662548 12.8441559 13.0901411 0 7.2249232-5.7549965 13.0901696-12.8441559 13.0901696-1.4976092 0-2.9368448-.2618953-4.2742507-.7435568 1.3432433-.8662033 2.5366608-1.9550603 3.5290134-3.2146643.245818.0206052.4948791.0313671.7452373.0313671 4.9624116 0 8.9908443-4.1053444 8.9908443-9.1633156 0-5.0569212-4.0284327-9.162305-8.9908443-9.162305-4.9617629 0-8.9901956 4.1053838-8.9901956 9.162305 0 2.4249756.9261957 4.6312348 2.4374255 6.2714433-.9936498.8838555-2.198742 1.5263553-3.526419 1.8383197zm-34.57952507-20.0852143s.23952588-.0203606.3553835.1696889c.03775136.0610882.04816553.1948882.05141995.2588888v9.0525808c0 .1590448.12822445.288966.28704052.288966h11.4236917c.1581652 0 .2870405-.1299212.2870405-.288966v-9.0225166s-.011065-.1803524.0559762-.288953c.1145558-.1900495.3540817-.1696889.3540817-.1696889h2.9433043s.2499401-.0155153.3631941.1570794c.0696448.1056948.0559762.289926.0559762.289926v23.1386115c-.005858.0852953-.0221301.2317566-.1438457.3073872-.108047.0659011-.2831352.0581824-.2831352.0581824h-2.9276831s-.1796444.0086917-.2876914-.0572095c-.0937275-.0581823-.1301771-.1706553-.1301771-.24434v-10.2190822c0-.1590448-.1288753-.288966-.2870405-.288966h-11.4236917c-.15881607 0-.28704052.1299212-.28704052.288966l.00065089 10.2181093c-.00650886.1046893-.03644959.1842117-.12236648.2365564-.10804699.0669389-.29159671.065966-.29159671.065966h-2.93158837s-.14775101.0057728-.26881572-.0708307c-.16727758-.1066353-.16011784-.3703695-.16011784-.3703695v-23.0658933s-.00715974-.1658035.0585797-.2744041c.11585762-.1900495.36254323-.1696889.36254323-.1696889zm61.25279297-.000634h9.0744004c1.5931347 0 3.1512917.2453379 4.630914.7301854 1.4723627.4819285 2.7922754 1.2256693 3.9234407 2.2118403 1.1305053.9842315 2.0471847 2.2389997 2.7269398 3.7303861.6797551 1.4913345 1.0242523 3.275604 1.0242523 5.3041589 0 2.0441227-.3959738 3.8351382-1.1740624 5.3225808-.7827083 1.4933454-1.8043208 2.7442216-3.0384392 3.7187686-1.2387382.9783741-2.6312461 1.7201818-4.1412264 2.2031093-1.5152598.4848735-3.0219403.7311697-4.4771441.7311697h-8.5418155s-.2382443-.0038919-.3378977-.1076776c-.0567563-.0581848-.0679755-.1260346-.0686355-.2249553l.0019799-23.30344c.0006599-.0727278.0224385-.1299396.0389374-.1580591.0983335-.161938.3583563-.1580671.3583563-.1580671zm6.5431168 20.6100318h-3.2997134c-.1615754 0-.2920276-.1294094-.2920276-.289023v-16.6898314c0-.1595876.1304522-.2890101.2920276-.2890101h4.0367354c1.3773638 0 2.6620205.1615275 3.8175492.4797392 1.1687727.322098 2.196498.831039 3.0553638 1.5131919.8648255.6879921 1.5488721 1.5968524 2.032936 2.7004127.4827395 1.0976367.7264269 2.4240181.7264269 3.9410637 0 1.5443204-.2761349 2.8804011-.8204585 3.9702914-.5443236 1.0918432-1.3012115 1.9929571-2.2488113 2.6780199-.9383291.6792042-2.0528018 1.1852549-3.3122951 1.5063699-1.2462493.3181858-2.5871924.4787758-3.987733.4787758z"/><path d="m74.600954 16.9322503c.4237062.5170816.942943.9366324 1.5487193 1.2538318 1.1710925.6115296 2.5029012.7785651 3.8161657.4185979.4546132-.1252767.8738238-.3151816 1.246955-.564782.3809985-.2545331.6917538-.5826627.9243989-.9763734.2354548-.3977464.355149-.8601211.355149-1.3731669 0-.8362429-.2736671-1.4914931-.8153816-1.9488791-.5096838-.4305931-1.1480528-.7974547-1.8982489-1.0927938-.7350235-.2893415-1.5498431-.5677528-2.4214192-.8262656-.8502222-.2525712-1.643126-.6016083-2.3567956-1.0370779-.7035546-.4295841-1.3003398-1.0112378-1.7763069-1.7281455-.4692237-.70698646-.7074882-1.67741828-.7074882-2.88259674 0-1.05296309.2157867-1.97172039.6423027-2.73238244.4276398-.76563389.9974516-1.41095171 1.6925771-1.91806162.699621-.51008627 1.511069-.89488466 2.413552-1.14644695 1.9437663-.53992119 4.0504966-.50114932 5.9521171.11732287.8440408.27443159 1.6245818.70298433 2.3292603 1.27671228.0516989.04175889.091035.11633635.1039598.18892396.0286591.1640648-.1354287.31222199-.1354287.31222199l-1.9111735 2.02345097c-.0393362.03679266-.0966545.07955489-.1534109.09347265-.1208181.02883886-.2208442-.03381629-.2759148-.08253687-.3663879-.39176567-.811448-.69503052-1.3312467-.90583166-.6838866-.27741357-1.4144146-.41761134-2.1691062-.41761134-.4506795 0-.8906821.05269467-1.3104547.15610539-.4276399.10341071-.8193153.2744428-1.1637873.50512565-.3523392.23565468-.6394929.54588682-.8524699.92074715-.2146629.37784231-.3231182.82826101-.3231182 1.34035396 0 .78052695.2759148 1.3880768.8232489 1.80471284.5085598.38877809 1.1446811.72979971 1.8920674 1.0142086.7333377.2784113 1.5470334.55082502 2.4197334.81034672.8490983.2515623 1.6408782.60558799 2.3545478 1.05103489.7024308.4395053 1.3003398 1.0301274 1.7774308 1.7569564.4692237.7179166.7074882 1.6933371.7074882 2.8994684 0 1.0957646-.2017381 2.0632256-.6018427 2.8755903-.3995426.8133735-.9446288 1.4974346-1.6200862 2.0323969-.679391.537933-1.4796001.9476185-2.3809592 1.2170615-.9052928.2714608-1.8752091.4086766-2.8799661.4086766-1.2767381 0-2.5214453-.2157449-3.701529-.6433112-1.0457788-.3788568-1.9482619-.9754765-2.7372321-1.8206316-.0236016-.0258401-.0427078-.0636193-.0477653-.0825089-.050013-.1859812.1151987-.3241499.1151987-.3241499l1.9701777-1.9170975s.1028359-.1133375.2101673-.1391776c.1196942-.0288669.2197203.0337995.2759148.0825088zm-72.04624714-.0209074c.42654405.5260499.95205777.9536161 1.5656563 1.2747392 1.1727615.6125385 2.50687415.7775562 3.81620505.4185979.45523131-.1252767.87483534-.3151816 1.24796654-.564782.38004313-.2545331.69079849-.5836156.92434265-.9763734.2355672-.3987554.3552614-.86113.3552614-1.3731669 0-.8362429-.2741166-1.4914931-.81543782-1.9488791-.50968374-.4305931-1.1490081-.7974547-1.89819263-1.0927938-.73631599-.2893415-1.55085467-.5677528-2.4217564-.8262656-.85013225-.2525712-1.64384527-.6016083-2.35640787-1.0370779-.70365577-.4295841-1.30042407-1.0112378-1.77645857-1.7281455-.47009475-.70698646-.70761973-1.6764654-.70761973-2.88259674 0-1.05296309.21574963-1.97271812.64130465-2.73238244.4285277-.76563389.99858115-1.41095171 1.69333011-1.91806162.69871066-.51008627 1.51123196-.89488466 2.4128271-1.14644695 1.94569943-.53992119 4.05169917-.50114932 5.95287006.11732287.8540996.27741918 1.6448681.71393133 2.3574138 1.29959279.0336605.04275662.0751882.10538936.0851346.16604345.0157906.09247492-.020792.16903663-.0613644.22471889l-2.0258664 2.14575128c-.034672.02585688-.0732776.04873178-.1128385.05867544-.1870713.04474648-.3226124-.1223003-.3226124-.1223003-.3582958-.37287048-.7917799-.66222878-1.29354021-.86606823-.68484187-.27741357-1.41424595-.41761134-2.16933089-.41761134-.45034239 0-.89073837.05269467-1.3113539.15610539-.42651594.10341071-.81843857.2744428-1.16383782.50512565-.35232239.23565468-.63833533.54588682-.85111565.92074715-.21574739.37784231-.32461291.82826101-.32461291 1.34035396 0 .78052695.27711173 1.3880768.82341178 1.80471284.50869473.38877809 1.1460579.72979971 1.89321942 1.0142086.73339389.2784113 1.54787638.55082502 2.4187781.81034672.84915447.2515623 1.64188968.60558799 2.35544698 1.05103489.7026555.4384964 1.3003959 1.0301274 1.7774307 1.7569564.4691113.7179166.7076006 1.6933371.7076006 2.8994684 0 1.0957646-.2018505 2.0632256-.601674 2.8755903-.4008351.8133735-.9451346 1.4974346-1.6210978 2.0323969-.6779299.537933-1.4796001.9476185-2.3801725 1.2170615-.90652901.2714608-1.87543387.4086766-2.87996602.4086766-1.27666506 0-2.52167577-.2157449-3.70136605-.6433112-1.03519746-.3748771-1.95361722-.9853977-2.73545826-1.8166519-.0178141-.0258401-.03266258-.053698-.04057999-.0825649-.05047335-.1859252.1019395-.3241499.1019395-.3241499l1.98528955-1.9319514s.10094211-.1024073.20782959-.1282474c.10292577-.0248872.20090643.0019618.24940224.0616014zm65.71537934-16.37653734c.0533848.00198986.142172.00993806.2045479.04374314.1359906.07357973.1545347.22969073.1567825.28836057v2.34264025c-.0011239.08252566-.0230397.15410993-.0724908.21576175-.0432698.05568226-.1050837.09943101-.2416362.10042313l-9.6637611-.00496062c-.1140748 0-.2062337.09346145-.2062337.20780795v5.19038933c0 .1143465.0921589.20683264.2062337.20683264h9.0343831s.2062337-.013957.2933351.06165743c.1253137.11036679.1146367.28334389.1146367.28334389v2.31876758s.0050575.162103-.0764244.243659c-.0432698.0427118-.1584684.0874414-.2809723.0825088l-9.0849582-.0039797c-.1140748 0-.2062337.093439-.2062337.2077855v5.7273583c0 .1143465.0921589.2067766.2062337.2067766l10.1728829-.0009529c.1236278.0019618.1550967.0139009.1786984.026849.1697072.0914772.1607161.3052603.1607161.3052603l.0039336 2.2819413c-.0061814.1253327-.0320308.2108124-.0713669.2615396-.1196942.1511167-.3174987.1123286-.3174987.1123286l-13.2954966.0060399c-.1246955.0009106-.1821263-.0139993-.2504025-.0686502-.1197504-.0954569-.1167788-.2962919-.1167788-.2962919v-20.09835892c.0059633-.04076677.0178203-.08253127.0386123-.11633635.0514741-.08651098.137564-.11931833.2068518-.13224397zm-25.5970256 0c.053441.00198986.1425092.00993806.2058965.04374314.1682462.0914772.1593113.30427379.1593113.30427379v17.16408201c0 .1143465.0920465.2067766.2058403.2067766h8.509246c.0484958.0020178.0871014.0089683.1098601.0219164.0870453.0467475.1088487.1034163.111827.201844v2.5036838c-.002023.0557159-.0198366.1094139-.0495073.1471931-.0623197.0785291-.1484658.1043692-.216742.1123286h-11.603931c-.0761997-.0039797-.2344995-.0327905-.2879966-.0954008-.0910351-.1044253-.1108155-.2068327-.1098602-.3321654l-.0088787-19.84375294c.0019668-.15810085.0386056-.25355775.0980031-.31122426.0940133-.09247493.1692015-.11037801.2850183-.11733969zm-9.7740146 20.40758764-1.7863657-4.4058714c-.0316374-.0775763-.1068256-.1283035-.1909487-.1283035h-9.1139546c-.0850784 0-.1612781.0517362-.1919602.1302653l-1.7091545 4.3472409s-.046529.1113196-.1346419.2694429c-.0316375.0556598-.123684.0775202-.2137637.0854796h-3.2361827c-.0613644-.0019618-.1128385-.0188896-.1445322-.0487093-.0672648-.0665901-.0296707-.2038059-.011857-.2515623l8.6497321-19.97702271s.0890682-.1988564.1464989-.29332118c.0633312-.10440284.1711684-.12826427.2859736-.13522595h2.4712638c.0880567.00497183.2216309.03082311.2859736.13522595.039617.06562592.0950248.18196227.1246955.24659046l8.5814558 20.01579393c.0237702.0566688.0504626.1988733-.0098902.2595218-.0306822.0308287-.0772112.0457386-.1435207.0487093h-3.3381194c-.0881129-.0009529-.1781927-.026849-.2138199-.080547-.0494512-.0775202-.0850785-.1689974-.1068819-.2177068zm-3.2827117-7.3421101h-6.5318753c-.0682763 0-.1316075-.0338556-.1702131-.0895154-.0386056-.0566688-.0474843-.1282474-.0227587-.1919228l3.2956364-8.59095886c.0306822-.07954368.1068819-.13224957.1929718-.13224957s.1622896.05269468.1929718.13323609l3.2352835 8.59098134c.0247256.0636192.0157907.135254-.0228149.1909138-.0386056.0566688-.1019368.0895154-.1692015.0895154z"/></g></svg>