<svg height="37.000047" viewBox="0 0 110.000023 37.0000472" width="110.000023" xmlns="http://www.w3.org/2000/svg" xmlns:xlink="http://www.w3.org/1999/xlink"><mask id="a" fill="#fff"><path d="m0 0h9.66111337v17.8709368h-9.66111337z" fill="#fff" fill-rule="evenodd"/></mask><g fill="#013e88" fill-rule="evenodd"><path d="m10.918439 8.61222534c0-2.68062273.0102958-5.36144296-.0102592-8.04196693-.0033036-.44280391.1289581-.56950271.5602933-.54688851.6578433.03446444 1.3195474.02636678 1.9782816.00207379.3559977-.01313401.449254.11958866.447175.45712296-.0123748 2.00634414.0056429 4.0128858-.0165327 6.01903244-.0042569.3798989.1020672.46206055.4627177.4492228.8070336-.02863808 1.6162451-.024688 2.4236747-.00118503.3226352.00938144.4089616-.08028536.4064867-.40379688-.0156417-1.98975381.0043559-3.97990263-.0173247-5.96965645-.0047519-.43895259.1304797-.57434156.5632999-.55251737.6579422.03318066 1.3198444.03031686 1.9781826.00069126.4007448-.01807161.5116228.12926635.5075639.5115353-.0163347 1.54566612-.0068309 3.09172725-.0068309 4.63759088 0 3.81548057-.0082168 7.6309611.0105206 11.4462442.0022502.4801322-.1403072.6288527-.6123308.596857-.5745857-.039007-1.1538243-.0092826-1.730984-.0092826-.6802168-.0000988-.6805138-.0000988-.6806128-.6564045-.000099-2.0557202-.0109888-4.1115391.0095038-6.1670617.0039599-.39540295-.0705857-.54096338-.501327-.51943545-.7897089.03940204-1.5832787.02932934-2.3739775.00276506-.3417419-.01145523-.4085657.10892344-.4067838.42088099.0120778 2.1214889-.0098008 4.2432742.0183147 6.3643681.0065339.4940562-.1536452.6189775-.6175509.5916232-.6244808-.0369333-1.2539116-.0323907-1.8790854-.0010863-.4239104.0212317-.5230076-.139339-.5206317-.5393833.0157407-2.6971143.0082169-5.3942287.0082169-8.09134296"/><path d="m82.580801 26.1675638c0 1.9404766.0228686 3.8813482-.0077218 5.8214297-.0218786 1.3916131-.2933318 2.7235799-1.3696405 3.7348002-1.4230995 1.3372995-3.1101283 1.4580731-4.8887305.952068-1.8559198-.5281257-2.8769875-1.9266513-2.9525232-3.8512288-.166614-4.2403117-.0458361-8.4818083-.0833565-12.7226137-.0051479-.5771066.1182039-.6941277.6916017-.6978803.6266587-.0042464 1.2535155.0078014 1.8799763-.0044439.3176853-.0062213.4532139.1454617.4661827.4396439.0065338.147733.0041579.295861.0043559.4438902.0054449 3.8316759.0091078 7.6633518.0180177 11.4950277.0010889.4616655.0843464.9173072.223538 1.3558648.2028473.6387279.6349746.8922242 1.4269604.8768189.7526835-.0146153 1.1483795-.2811469 1.340832-.9249111.2767001-.9259974.2492775-1.8888293.2582864-2.8341821.0325704-3.4038823.0206906-6.8083571.0032669-10.2125356-.0022769-.4450752.1042452-.6135461.5732988-.5820442.6074531.0406858 1.2216381.0395007 1.8292892.000395.4693506-.0302181.6038892.1566206.6014476.5922156-.0119131 2.0391298-.0053792 4.0784572-.0053792 6.1176857-.003168 0-.0064349 0-.0097019 0"/><path d="m5.5877606 0c1.37508539.02736325 2.69423678.77096572 3.56789614 2.28295742.35372067.61216357.59339538 1.27597444.89553796 1.91124598.1285987.27018544.0323724.40577192-.21502414.47953966-.76971123.22949962-1.54397637.44379143-2.31101464.68178372-.27234412.08463046-.35035473-.07534776-.43648318-.26287779-.21126222-.46008551-.39134-.93844015-.64497346-1.37423267-.36193752-.62174252-1.02185971-.90782703-1.68108891-.76434039-.62487681.13608024-.99107126.55024608-1.13620266 1.16221215-.10998703.46383809.04425221.87563388.28125397 1.26284043.54508424.89044668 1.38805415 1.48127982 2.17142713 2.13106791.7597124.63003768 1.54229339 1.2343011 2.28111717 1.88784176 1.50804 1.33384312 2.04530342 3.01203442 1.65000342 4.97512522-.36124449 1.7935336-1.91432869 3.1191803-3.91161794 3.3780092-3.07211301.3980693-5.40322428-1.2510889-6.02711112-4.2636171-.15532822-.7501201-.10266116-.8392931.61774895-1.0501286.56626986-.1658046 1.1341237-.3263753 1.69772061-.5004751.27670004-.0855192.42539538-.009974.51261282.2742343.15334826.499685.3018456 1.0059865.51607776 1.4809835.42836534.9496979 1.4079528 1.3961557 2.36110774 1.1224151 1.15501233-.3317079 1.61971001-1.7671668.84019796-2.6936579-1.06551793-1.2663955-2.36783962-2.27880093-3.66847833-3.28942878-1.04264934-.81006256-1.92977246-1.74751518-2.31339059-3.04738761-.92642542-3.1391282 1.18283082-5.78973032 4.95268334-5.78411041" transform="translate(0 19.1902)"/><path d="m57.891831 36.9382358c-2.9028261-.0006913-5.0171312-1.8254305-5.3887706-4.3957472-.1017702-.704003-.054746-.7793507.6234909-.977546.5211266-.1522755 1.0538361-.272753 1.5614-.4608755.4079717-.1512881.5663689-.0074064.6757619.3637036.1623571.5505423.3228332 1.1051335.617155 1.6062011.5892374 1.0037152 2.1045043 1.2638279 2.9168838.5020551.6895226-.6465293.7189251-1.7496878.0458361-2.48223-1.00503-1.093777-2.1329168-2.0515726-3.3122827-2.9535732-1.0418573-.7968298-1.9743216-1.6836227-2.4596109-2.9550545-1.0939305-2.8663753.7725821-5.761586 3.8293504-6.02081 2.8288744-.2398686 4.2240564 1.2714318 4.9590192 2.9888277.1615651.3776276.3288722.7530826.506772 1.1232051.1433494.298231.054053.4566292-.2576924.5426422-.6976405.1922701-1.39538.385824-2.0850017.6042634-.3469888.1099109-.5224136-.0158991-.6487354-.3226228-.1624561-.3943167-.3093694-.8015699-.5263736-1.1655697-.6217088-1.0427222-1.8549298-1.2177108-2.5613811-.3880953-.4539069.5329645-.4746965 1.3499397-.0240566 2.0190831.6460625.9592769 1.6017913 1.5964247 2.4675308 2.3283744.9401862.7948548 1.9804596 1.4803911 2.741954 2.4735398 1.3831042 1.8037051 1.341624 4.3626654-.1450324 6.0498431-1.007208 1.1429555-2.3820954 1.4451366-3.5362167 1.5203856"/><path d="m21.6084953 8.6163433c0-2.69731181.0077219-5.39472238-.0085526-8.09203419-.0023372-.39105787.1036899-.50403015.5005738-.50102904 2.3419021.01842807 4.6840022.01832932 7.0259043.00035646.4067837-.00306131.5146917.13687026.498159.51607789-.0257395.59103065-.0264325 1.18482636.000198 1.77575826.0173247.38572526-.111175.52081798-.5050889.51538662-1.3521178-.01876287-2.7048296.00158004-4.0571454-.01372652-.3140224-.00345632-.4291573.0670526-.4216334.40636443.0232645 1.05210368.0235615 2.10539239-.000198 3.15749608-.0076229.3405956.1131549.40369813.4200494.39727925.8737584-.01836787 1.7481107-.0074064 2.6222651-.00612263.611611.00088877.6273518.01797286.6285397.64702303.000891.5263481-.0287094 1.05467124.0086129 1.57835303.0344514.48378599-.1016712.67427858-.6247778.64880056-.8885091-.04325337-1.7808791.00029626-2.6711702-.01846662-.3120424-.00661638-.4317313.06300377-.4266824.40340189.0196017 1.3154752.0209877 2.6316417-.000792 3.9470182-.0057419.3475083.1225598.4029081.4277714.3998468 1.3687495-.0136278 2.737895.0023701 4.1066445-.011554.3523347-.003555.5092469.0900618.4939021.4728245-.0264325.6567995-.0182156 1.3156728-.0024749 1.9732623.0072269.298626-.0951373.4011306-.3993589.3999455-2.4079339-.0095789-4.8160658-.0129365-7.2239007.0018977-.4133176.0025462-.3933199-.2259659-.3929239-.5061253.0034649-2.6973118.0020789-5.3947224.0020789-8.0920342"/><path d="m46.6091514 26.0706782c.4272764-1.3368056.8297042-2.5916471 1.229162-3.8473774.2379918-.7482438.4809334-1.4951051.7021944-2.2481878.1019682-.3469157.2728392-.5131153.6630902-.4976113.724469.0288356 1.450819.0063202 2.176377.0088877.5684478.0019751.6455675.097962.445888.6457393-.8180223 2.2440402-1.6607942 4.4790939-2.4655508 6.7277754-.3743123 1.0459811-.8337631 2.0646079-1.0668049 3.1593724-.0935534.4393476-.0809806.8829415-.0832575 1.3249554-.0081179 1.5950421-.0165327 3.1902818.0055439 4.7850276.0060389.4365826-.1369146.5765141-.5680519.5589363-.724271-.0295269-1.451215-.0239968-2.17608-.0015801-.3748073.0116528-.4829134-.1339077-.4817254-.4905011.0060389-1.8085439-.0149487-3.6170878-.0097018-5.425533.0021779-.722667-.2171031-1.3872679-.4602428-2.0498938-1.0144348-2.7644631-2.0328296-5.5275437-3.0458785-8.2925994-.3390689-.9257012-.3231302-.9422915.6763559-.9422915.5935934 0 1.1886718.0251818 1.7803842-.0085914.4202474-.023898.6152739.1304514.7379328.5289156.5774566 1.8752015 1.1811478 3.7425029 1.7766222 5.6121743.0392032.123045.0877124.2431274.163743.4523828"/><path d="m13.7889124 29.4461002c0-2.2026631-.0101968-4.4055237.0095038-6.608088.003465-.3907617-.0613789-.5409634-.4955851-.5177567-.7725822.0413771-1.5493223-.0043451-2.3233894.0185653-.3740153.0109615-.4967731-.1345989-.4886553-.488526.0147508-.6407029.0146518-1.2822946.000099-1.9230963-.0078208-.3450394.1330537-.448729.4720236-.447457 2.8846104.0105782 5.7693197.0096895 8.6540291.000703.3129334-.0008887.4493529.0846305.4405421.4159434-.0175227.656997-.0208886 1.3153765.001089 1.972176.0120778.3609385-.1506753.4523828-.4732116.4476427-.7580294-.0111589-1.5172468.0169854-2.2743852-.0122452-.3785693-.0146153-.4924172.0807791-.4909323.4775646.0155428 4.3889334.0098009 8.7778668.0098009 13.1668989 0 .1315376-.000693.2629765-.000594.3945142.000099.2124155-.0788026.3397068-.3185763.3383243-.8076276-.0048389-1.6154531-.0093815-2.4230806.0022526-.3443159.0048575-.2988757-.2194082-.2988757-.4320213.000297-2.2684319.000198-4.5369626.000198-6.8053945"/><path d="m6.31290156 10.0028903c0 2.2361401-.00791986 4.4722801.00772186 6.7083214.00267295.3786151-.0835545.5270393-.49330817.5056101-.67407893-.0352544-1.35290978-.0363407-2.02698871-.0000987-.4416311.0237992-.55854801-.1243288-.55646904-.5549862.01603771-3.3706029.00881084-6.74130447.00881084-10.11190734 0-1.10167718-.01088981-2.20345312.00722687-3.30473529.00494991-.29882352-.06563583-.39500795-.37837123-.38552776-.79069884.02379923-1.58298166-.0047401-2.3739775.01362777-.3521367.00809767-.51766174-.09430815-.50706893-.47144199.01851267-.65719448.01257278-1.31537649.00207897-1.97286722-.00504891-.31640137.12305479-.42976866.44212608-.42888507 2.90183606.00820159 5.80377111.00810284 8.70560717.00040019.32887211-.00088877.43192927.13222891.42509839.44290267-.01415674.6409004-.01742369 1.28278832.00108898 1.92349123.00989982.34069436-.111571.4695657-.45737181.4621593-.79099584-.01688659-1.58327866.01194899-2.37387851-.01333152-.34104889-.01086272-.44341306.07712531-.44083911.42957115.0167307 2.25253286.00851385 4.50516446.00851385 6.75769728" transform="translate(.2502)"/><path d="m66.1608559 29.3729546c0-2.1374868.003267-4.2750723-.0016829-6.4125591-.001881-.8233941.1053341-.7105206-.6954626-.7177295-.7089263-.0064188-1.4181496-.0105664-2.1268779.0026663-.3138244.0058264-.4519269-.1055658-.445789-.4284848.0123748-.6574908.0087118-1.3153765.0016829-1.972966-.0029699-.2721605.111769-.3797014.3854001-.3792076 2.9350005.0046413 5.869902.0055301 8.8048034-.00099.3130324-.0006888.3978739.1438841.394013.4231547-.0084149.6247051-.0145528 1.2499039.0023759 1.8743127.0093059.3437557-.1372115.4747009-.4678656.4715408-.7418927-.0070114-1.4850724.023108-2.2254801-.0112577-.4427201-.0206392-.5806247.0972707-.5785457.5623925.0190077 4.3901184.0113848 8.7802368.0111868 13.1703552 0 .6870176-.000594.6873139-.6729899.6878076-.6265598.000395-1.2538126-.0178741-1.8793824.0065177-.3945079.015504-.5137018-.1363765-.5115238-.5177567.0125727-2.2525329.0061378-4.5051645.0061378-6.7577961"/><path d="m95.4489223 28.0128138c0-2.6305554-.0000742-5.2610121.0001238-7.8915676 0-.6538369.000396-.6539357.6782368-.6540344.560528-.0001975 1.1227389.0265643 1.681089-.0083939.4531148-.0283419.5996322.1174161.5954743.5799704-.0210866 2.3508898-.0097018 4.7019772-.0097018 7.0530645 0 2.9593008.000396 5.9187004-.000396 8.8780013-.000198.6694397-.003762.6714147-.6491314.672106-.5440943.0005925-1.0880895.0004082-1.6321838 0-.6629911-.0004938-.6633871-.0006913-.6633871-.6882026-.000198-2.6470471-.0001238-5.2939954-.0001238-7.9409437"/><path d="m90.6803113 31.4426877c-.0023759.4069569-.1016711.80947-.2383877 1.2002316-.2451196.7009416-.7615934 1.0553625-1.4697277 1.1380179-1.5503122.1811112-1.5513022.1730135-1.5513022-1.3825278 0-1.4452353 0-2.8904707 0-4.3358048 0-1.7244072-.000198-3.4489132.000198-5.1734192.000099-.6361603.000891-.6371478.6608132-.6368515.2469015.0000987.4965751-.0170841.7403087.012344 1.230845.1486217 1.8340412.8263566 1.8551278 2.2313999.0348474 2.3150429.0165327 4.6310732.0029699 6.9466099m2.965294-8.1296587c-.1013742-1.2453614-.5831986-2.3589875-1.676337-3.1060463-.7620884-.520818-1.6350548-.693239-2.5304937-.7115081-1.4498291-.0294281-2.9006481-.0079002-4.3510711-.0072089-.6818008.0002963-.6999175.0171828-.7001155.6839563-.000792 2.6138664-.000297 5.2277327-.000297 7.8415991v4.7345653c0 1.1343641-.000297 2.2687282.000495 3.4029936.000198.2610015.0142557.4985988.3829251.4928711 1.7447448-.0269593 3.4929545.1216625 5.2337393-.0929256 1.8526529-.2283146 3.0434036-1.2704443 3.5031513-3.0612129.1352316-.5270393.1532493-1.0687927.1772069-1.6111387.1263217-2.8564012.1930465-5.7144813-.0392033-8.5659449"/><path d="m38.1696713 25.4404826c-.282145 1.1050347-.725459 1.4665657-1.8564148 1.5392472-1.342317.0863092-1.342317.0863092-1.342317-1.2351899v-1.0848893c.000099-.6574908.0190077-1.3157715-.0084148-1.9720772-.0126718-.3019836.0878114-.4115983.3744113-.418906.4951891-.0126402.9886953.0032589 1.4771526.0834455.5799316.0950981.9850323.4161408 1.2033234.9674732.2740271.6918564.336297 1.4000069.1522593 2.1208965m3.1631914 10.5533287c-.6908097-2.1488433-1.3816193-4.2976865-2.0958915-6.4388272-.1098881-.3296341-.056726-.5252618.1879976-.7582177 1.8736405-1.7836584 2.3255674-3.9400069 1.5614001-6.3558755-.4913282-1.55327-1.4782416-2.5954985-3.2055627-2.7989276-1.7384088-.2046141-3.4857276-.163632-5.2274034-.2624828-.4670736-.0264655-.5910194.137759-.5881485.5871793.0175227 2.6977069.0087119 5.3955124.0087119 8.093318 0 2.6814127.0131668 5.3628255-.0115828 8.0440407-.0047519.5128191.1591891.6606508.6507153.6288527.5913165-.038217 1.1887708-.0361433 1.7803842-.0004938.4766764.0287368.6227978-.1285751.616066-.6113735-.0266306-1.9242813-.0124738-3.849155-.0083159-5.7738313.000297-.1714335-.0684078-.37427.1224608-.4967225.3520377-.2256483.9987931.0211329 1.1322427.4293736.6403206 1.9596345 1.286878 3.9172939 1.9126458 5.8816685.1250348.3923416.3216452.5516286.7453577.5279281.6413105-.0357482 1.2861849-.0080977 1.9294754-.0096777.6439835-.0014813.6916016-.0570786.4894473-.6859313"/><path d="m27.3405323 32.355314c-.0093058 1.0510174-.7676322 1.748404-1.7622674 1.7308261-.9915663-.0175778-1.6865338-.7359985-1.6975226-1.7966936-.0145528-1.3975382-.003564-2.7952738-.003663-4.1930095 0-1.3813428-.0109888-2.7627843.003366-4.1439297.0122757-1.183345.7116982-1.8686838 1.8367141-1.8369844.9403842.0265642 1.6138691.7013366 1.6232739 1.753144.0253436 2.8287507.0251456 5.6578964.000099 8.4866471m2.9772727-8.9215509c-.1304796-2.3752815-2.1052963-4.2688509-4.4167069-4.3529876-2.9892515-.1089234-4.7845844 2.0052579-4.9879267 4.2158211-.1447354 1.5735142-.0895934 3.151571-.0690018 4.7276527 0 1.3313743-.0051479 2.6627486.003366 3.9940242.0023759.3602473.0356393.7212845.0729616 1.0799517.1049382 1.0099366.4610348 1.912036 1.2116394 2.6222603 1.1940176 1.1297228 2.6626563 1.353001 4.2222744 1.2154395 2.1973646-.1936526 3.8478631-1.8020263 3.9524052-3.8944822.1598822-3.2014407.1869087-6.4051527.0109888-9.6076797"/><path d="m6.57753636 12.3741553c-.00148497.408932-.03286741.8202341-.08573246 1.2258085-.09998821.7675004-.70892631 1.3149815-1.50982198 1.3897367-.81594339.0762365-1.53635349-.3677524-1.78107711-1.1044422-.11454095-.3447432-.16314908-.7007441-.16255509-1.064744.00207896-1.2655067.00079198-2.5311122.00079198-3.79661891 0-1.26560549.00247496-2.53111222-.00160506-3.7967177-.00106789-.36419733.03991738-.72553086.14703346-1.06829901.26709722-.85499472.92850438-1.22600594 1.94095926-1.12281011.71862813.07317522 1.2847.65946578 1.37300642 1.45550556.04880613.43924884.07771361.88294153.07929758 1.32475792.00782086 2.18587526.00782086 4.37184925-.000297 6.55782325m2.87698751-8.37120601c-.23343783-2.25194034-2.17271411-3.96479358-4.37770164-4.00202308-2.58989264-.04364838-4.5475826 1.45846811-4.90249125 3.86258527-.2399717 1.62605024-.18839363 3.27678848-.10325515 4.91893529 0 1.61005243-.04009428 3.22138863.01385975 4.82966353.03702534 1.1030597.36579845 2.1348205 1.18906772 2.9471543 1.17708893 1.1614221 2.64048073 1.3991182 4.20405875 1.2865409 2.18330691-.1573119 3.70243472-1.6013622 3.99814243-3.7522793.13740954-.9994689.04969711-2.0033816.10365114-3.003838.12750972-2.36540635.11869888-4.73288652-.12533175-7.08673891" mask="url(#a)" transform="translate(100.3389 19.0924)"/></g></svg>