<svg height="37.0002" viewBox="0 0 203 37.0002" width="203" xmlns="http://www.w3.org/2000/svg"><g fill="#013e88"><path d="m15.3831 9.84005 21.6948 17.10585v-26.9459h-37.0779v26.308z"/><path d="m15.3831 15.3516-15.3831 17.7115v3.9371h37.0779v-8.2855z"/><path d="m75.3875 22.7144 5.1724-17.24272h5.5037l-8.5481 25.90092h-4.2561l-5.797-17.5389-5.7962 17.5389h-4.2561l-8.5482-25.90092h5.503l5.1732 17.24272 5.7963-17.24272h4.2568z"/><path d="m88.2068 10.1016h12.9712v3.7069h-8.6272v5.7134h7.2394v3.707h-7.2394v4.4375h8.8982v3.7077h-13.2422z"/><path d="m104.493 15.5108c0-3.4339 2.413-5.77447 6.787-5.77447 2.021 0 4.102.54737 5.671 1.48997l-1.327 3.4641c-1.086-.7292-2.534-1.1854-3.921-1.1854-1.901 0-2.805.699-2.805 1.7925 0 1.1867.784 1.9004 3.649 3.2212 3.696 1.7026 5.46 3.5863 5.46 6.7767 0 3.921-2.655 6.4433-7.632 6.4433-2.202 0-4.555-.6379-6.335-1.7321l1.328-3.5258c1.358.9425 3.198 1.4899 4.825 1.4899 2.113 0 3.409-.8513 3.409-2.3251 0-1.565-1.1-2.4465-3.694-3.5855-4.193-1.8388-5.415-3.7989-5.415-6.5493z"/><path d="m126.164 13.8092h-5.641v-3.7076h15.625v3.7076h-5.641v17.5649h-4.343z"/><path d="m148.728 9.91202h-2.714v10.28708h2.714c3.448 0 5.393-1.8871 5.393-5.1435 0-3.2571-1.945-5.14358-5.393-5.14358zm-2.714 14.72678v6.7352h-5.284v-25.90232h8.438c6.42 0 10.309 4.18137 10.309 9.58392 0 5.4018-3.889 9.5832-10.309 9.5832z"/><path d="m166.618 21.5277h2.233c2.987 0 4.614-1.3061 4.614-3.8901 0-2.5525-1.627-3.8887-4.012-3.8887h-2.835zm5.007 3.2213 6.697 6.6251h-5.52l-6.184-6.4419v6.4419h-4.344v-21.2725h7.27c5.188 0 8.326 3.2823 8.326 7.4447 0 3.7084-2.444 6.3521-6.245 7.2027z"/><path d="m191.688 27.971c3.831 0 6.908-2.9483 6.908-7.2329 0-4.2852-3.077-7.2321-6.908-7.2321-3.83 0-6.907 2.9469-6.907 7.2321 0 4.2846 3.077 7.2329 6.907 7.2329zm0-18.2337c6.336 0 11.312 4.5589 11.312 11.0008 0 6.4426-4.976 11.0009-11.312 11.0009-6.334 0-11.311-4.5583-11.311-11.0009 0-6.4419 4.977-11.0008 11.311-11.0008z"/></g></svg>